<svg viewBox="-0.5 -0.5 16 16" fill="none" xmlns="http://www.w3.org/2000/svg" id="Trash-Bin-Trash--Streamline-Solar.svg" height="16" width="16"><desc>Trash Bin Trash Streamline Icon: https://streamlinehq.com</desc><path d="M1.875 3.9912312500000002c0 -0.30278125 0.2158625 -0.5482374999999999 0.48214375 -0.5482374999999999l1.66515 -0.00029375c0.33084375 -0.009537499999999999 0.62271875 -0.24874375 0.73529375 -0.602625 0.0029625000000000003 -0.00930625 0.0063625 -0.02078125 0.018568750000000002 -0.062424999999999994l0.07175 -0.2448c0.04390625000000001 -0.15009375 0.08215625000000001 -0.2808625 0.1356875 -0.39774375 0.2114625 -0.46175625 0.60270625 -0.78240625 1.0548250000000001 -0.8645 0.11443750000000001 -0.02078125 0.23564374999999999 -0.02069375 0.37476875 -0.02059375h2.17375c0.139125 -0.0001 0.2603125 -0.00018749999999999998 0.37475 0.02059375 0.452125 0.08209375 0.843375 0.40274375 1.0548125 0.8645 0.0535625 0.11688125 0.0918125 0.24764999999999998 0.1356875 0.39774375l0.07175 0.2448c0.0121875 0.04164374999999999 0.015625 0.05311875 0.0185625 0.062424999999999994 0.112625 0.35388125 0.462375 0.59338125 0.7931874999999999 0.6029187500000001h1.6071875c0.26625 0 0.48212499999999997 0.24545625000000001 0.48212499999999997 0.5482374999999999 0 0.3027875 -0.21587499999999998 0.54824375 -0.48212499999999997 0.54824375H2.35714375C2.0908625 4.539475 1.875 4.29401875 1.875 3.9912312500000002Z" fill="#000000" stroke-width="1"></path><path fill-rule="evenodd" clip-rule="evenodd" d="M7.247249999999999 13.7500625h0.5055c1.7391875 0 2.6088125 0 3.1741875000000004 -0.5536875 0.5654374999999999 -0.5536875 0.62325 -1.4619375000000001 0.7389374999999999 -3.2784999999999997l0.1666875 -2.6174375c0.06281250000000001 -0.985625 0.09418750000000001 -1.4784125000000001 -0.1895 -1.7907000000000002 -0.283625 -0.3122875 -0.762625 -0.3122875 -1.7205625 -0.3122875H5.0775250000000005c-0.95798125 0 -1.4369750000000001 0 -1.72061875 0.3122875 -0.28364375000000003 0.3122875 -0.25225625 0.805075 -0.18948125 1.7907000000000002l0.16669375 2.6174375c0.11569375 1.8165624999999999 0.1735375 2.7248125 0.7389374999999999 3.2784999999999997 0.5654 0.5536875 1.4349999999999998 0.5536875 3.17419375 0.5536875Zm-0.8433124999999999 -6.132187500000001c-0.025750000000000002 -0.271125 -0.25548125 -0.469 -0.51308125 -0.44187499999999996 -0.2576 0.027125 -0.44553750000000003 0.2689375 -0.41978125 0.5400625l0.3125 3.2895000000000003c0.0257625 0.271125 0.25546875 0.469 0.51305 0.44187499999999996 0.257625 -0.027125 0.4455625 -0.2689375 0.4198125 -0.5400625l-0.3125 -3.2895000000000003Zm2.7051874999999996 -0.44187499999999996c0.257625 0.027125 0.4455625 0.2689375 0.4198125 0.5400625l-0.3125 3.2895000000000003c-0.025750000000000002 0.271125 -0.2555 0.469 -0.5130625 0.44187499999999996 -0.257625 -0.027125 -0.4455625 -0.2689375 -0.4198125 -0.5400625l0.3125 -3.2895000000000003c0.025750000000000002 -0.271125 0.2555 -0.469 0.5130625 -0.44187499999999996Z" fill="#000000" stroke-width="1"></path></svg>